<?xml version="1.0" encoding="UTF-8" standalone="no"?>
<!DOCTYPE svg PUBLIC "-//W3C//DTD SVG 1.1//EN"
 "http://www.w3.org/Graphics/SVG/1.1/DTD/svg11.dtd">
<!-- Generated by graphviz version 2.43.0 (0)
 -->
<!-- Title: AutogradGraph Pages: 1 -->
<svg width="1131pt" height="100pt"
 viewBox="0.00 0.00 1131.00 100.00" xmlns="http://www.w3.org/2000/svg" xmlns:xlink="http://www.w3.org/1999/xlink">
<g id="graph0" class="graph" transform="scale(1 1) rotate(0) translate(4 96)">
<title>AutogradGraph</title>
<polygon fill="white" stroke="transparent" points="-4,4 -4,-96 1127,-96 1127,4 -4,4"/>
<!-- tensor_140449576563824 -->
<g id="node1" class="node">
<title>tensor_140449576563824</title>
<path fill="#fff2cc" stroke="black" d="M814,-27.5C814,-27.5 1111,-27.5 1111,-27.5 1117,-27.5 1123,-33.5 1123,-39.5 1123,-39.5 1123,-51.5 1123,-51.5 1123,-57.5 1117,-63.5 1111,-63.5 1111,-63.5 814,-63.5 814,-63.5 808,-63.5 802,-57.5 802,-51.5 802,-51.5 802,-39.5 802,-39.5 802,-33.5 808,-27.5 814,-27.5"/>
<text text-anchor="middle" x="813" y="-41.8" font-family="Helvetica,sans-Serif" font-size="14.00">f</text>
<polyline fill="none" stroke="black" points="824,-27.5 824,-63.5 "/>
<text text-anchor="middle" x="896.5" y="-41.8" font-family="Helvetica,sans-Serif" font-size="14.00">data=59880.1406</text>
<polyline fill="none" stroke="black" points="969,-27.5 969,-63.5 "/>
<text text-anchor="middle" x="1046" y="-41.8" font-family="Helvetica,sans-Serif" font-size="14.00">requires_grad=True</text>
</g>
<!-- fn_140449574333328 -->
<g id="node2" class="node">
<title>fn_140449574333328</title>
<polygon fill="#d9eaf7" stroke="black" points="766,-63.5 646,-63.5 646,-27.5 766,-27.5 766,-63.5"/>
<text text-anchor="middle" x="706" y="-41.8" font-family="Helvetica,sans-Serif" font-size="14.00">AddBackward0</text>
</g>
<!-- fn_140449574333328&#45;&gt;tensor_140449576563824 -->
<g id="edge8" class="edge">
<title>fn_140449574333328&#45;&gt;tensor_140449576563824</title>
<path fill="none" stroke="black" d="M766.03,-45.5C774.14,-45.5 782.77,-45.5 791.72,-45.5"/>
<polygon fill="black" stroke="black" points="791.95,-49 801.95,-45.5 791.95,-42 791.95,-49"/>
</g>
<!-- fn_140449574333568 -->
<g id="node3" class="node">
<title>fn_140449574333568</title>
<polygon fill="#d9eaf7" stroke="black" points="609.5,-36.5 491.5,-36.5 491.5,-0.5 609.5,-0.5 609.5,-36.5"/>
<text text-anchor="middle" x="550.5" y="-14.8" font-family="Helvetica,sans-Serif" font-size="14.00">MulBackward0</text>
</g>
<!-- fn_140449574333568&#45;&gt;fn_140449574333328 -->
<g id="edge5" class="edge">
<title>fn_140449574333568&#45;&gt;fn_140449574333328</title>
<path fill="none" stroke="black" d="M609.53,-28.71C618.17,-30.23 627.14,-31.8 635.97,-33.36"/>
<polygon fill="black" stroke="black" points="635.41,-36.81 645.87,-35.1 636.62,-29.92 635.41,-36.81"/>
</g>
<!-- fn_140449574334096 -->
<g id="node4" class="node">
<title>fn_140449574334096</title>
<polygon fill="#d9eaf7" stroke="black" points="455,-90.5 324,-90.5 324,-54.5 455,-54.5 455,-90.5"/>
<text text-anchor="middle" x="389.5" y="-68.8" font-family="Helvetica,sans-Serif" font-size="14.00">AccumulateGrad</text>
</g>
<!-- fn_140449574334096&#45;&gt;fn_140449574333568 -->
<g id="edge2" class="edge">
<title>fn_140449574334096&#45;&gt;fn_140449574333568</title>
<path fill="none" stroke="black" d="M443.89,-54.37C457.59,-49.71 472.47,-44.66 486.61,-39.86"/>
<polygon fill="black" stroke="black" points="487.91,-43.11 496.25,-36.58 485.66,-36.49 487.91,-43.11"/>
</g>
<!-- fn_140449574333664 -->
<g id="node8" class="node">
<title>fn_140449574333664</title>
<polygon fill="#d9eaf7" stroke="black" points="610,-90.5 491,-90.5 491,-54.5 610,-54.5 610,-90.5"/>
<text text-anchor="middle" x="550.5" y="-68.8" font-family="Helvetica,sans-Serif" font-size="14.00">ExpBackward0</text>
</g>
<!-- fn_140449574334096&#45;&gt;fn_140449574333664 -->
<g id="edge6" class="edge">
<title>fn_140449574334096&#45;&gt;fn_140449574333664</title>
<path fill="none" stroke="black" d="M455.17,-72.5C463.55,-72.5 472.15,-72.5 480.59,-72.5"/>
<polygon fill="black" stroke="black" points="480.77,-76 490.77,-72.5 480.77,-69 480.77,-76"/>
</g>
<!-- tensor_140449575618496 -->
<g id="node5" class="node">
<title>tensor_140449575618496</title>
<path fill="#fff2cc" stroke="black" d="M12,-55.5C12,-55.5 276,-55.5 276,-55.5 282,-55.5 288,-61.5 288,-67.5 288,-67.5 288,-79.5 288,-79.5 288,-85.5 282,-91.5 276,-91.5 276,-91.5 12,-91.5 12,-91.5 6,-91.5 0,-85.5 0,-79.5 0,-79.5 0,-67.5 0,-67.5 0,-61.5 6,-55.5 12,-55.5"/>
<text text-anchor="middle" x="12.5" y="-69.8" font-family="Helvetica,sans-Serif" font-size="14.00">x</text>
<polyline fill="none" stroke="black" points="25,-55.5 25,-91.5 "/>
<text text-anchor="middle" x="79.5" y="-69.8" font-family="Helvetica,sans-Serif" font-size="14.00">data=2.0000</text>
<polyline fill="none" stroke="black" points="134,-55.5 134,-91.5 "/>
<text text-anchor="middle" x="211" y="-69.8" font-family="Helvetica,sans-Serif" font-size="14.00">requires_grad=True</text>
</g>
<!-- tensor_140449575618496&#45;&gt;fn_140449574334096 -->
<g id="edge1" class="edge">
<title>tensor_140449575618496&#45;&gt;fn_140449574334096</title>
<path fill="none" stroke="black" d="M288.05,-72.91C296.79,-72.88 305.37,-72.84 313.62,-72.81"/>
<polygon fill="black" stroke="black" points="313.88,-76.31 323.87,-72.77 313.85,-69.31 313.88,-76.31"/>
</g>
<!-- fn_140445706216224 -->
<g id="node6" class="node">
<title>fn_140445706216224</title>
<polygon fill="#d9eaf7" stroke="black" points="455,-36.5 324,-36.5 324,-0.5 455,-0.5 455,-36.5"/>
<text text-anchor="middle" x="389.5" y="-14.8" font-family="Helvetica,sans-Serif" font-size="14.00">AccumulateGrad</text>
</g>
<!-- fn_140445706216224&#45;&gt;fn_140449574333568 -->
<g id="edge4" class="edge">
<title>fn_140445706216224&#45;&gt;fn_140449574333568</title>
<path fill="none" stroke="black" d="M455.17,-18.5C463.76,-18.5 472.59,-18.5 481.24,-18.5"/>
<polygon fill="black" stroke="black" points="481.28,-22 491.28,-18.5 481.28,-15 481.28,-22"/>
</g>
<!-- tensor_140449576563904 -->
<g id="node7" class="node">
<title>tensor_140449576563904</title>
<path fill="#fff2cc" stroke="black" d="M12,-0.5C12,-0.5 276,-0.5 276,-0.5 282,-0.5 288,-6.5 288,-12.5 288,-12.5 288,-24.5 288,-24.5 288,-30.5 282,-36.5 276,-36.5 276,-36.5 12,-36.5 12,-36.5 6,-36.5 0,-30.5 0,-24.5 0,-24.5 0,-12.5 0,-12.5 0,-6.5 6,-0.5 12,-0.5"/>
<text text-anchor="middle" x="12.5" y="-14.8" font-family="Helvetica,sans-Serif" font-size="14.00">y</text>
<polyline fill="none" stroke="black" points="25,-0.5 25,-36.5 "/>
<text text-anchor="middle" x="79.5" y="-14.8" font-family="Helvetica,sans-Serif" font-size="14.00">data=3.0000</text>
<polyline fill="none" stroke="black" points="134,-0.5 134,-36.5 "/>
<text text-anchor="middle" x="211" y="-14.8" font-family="Helvetica,sans-Serif" font-size="14.00">requires_grad=True</text>
</g>
<!-- tensor_140449576563904&#45;&gt;fn_140445706216224 -->
<g id="edge3" class="edge">
<title>tensor_140449576563904&#45;&gt;fn_140445706216224</title>
<path fill="none" stroke="black" d="M288.05,-18.5C296.79,-18.5 305.37,-18.5 313.62,-18.5"/>
<polygon fill="black" stroke="black" points="313.87,-22 323.87,-18.5 313.87,-15 313.87,-22"/>
</g>
<!-- fn_140449574333664&#45;&gt;fn_140449574333328 -->
<g id="edge7" class="edge">
<title>fn_140449574333664&#45;&gt;fn_140449574333328</title>
<path fill="none" stroke="black" d="M610.41,-62.14C618.79,-60.66 627.48,-59.14 636.04,-57.63"/>
<polygon fill="black" stroke="black" points="636.75,-61.06 646,-55.88 635.54,-54.16 636.75,-61.06"/>
</g>
</g>
</svg>
